<mxfile host="app.diagrams.net" modified="2023-11-06T02:24:40.576Z" agent="Mozilla/5.0 (Macintosh; Intel Mac OS X 10_15_7) AppleWebKit/537.36 (KHTML, like Gecko) Chrome/118.0.0.0 Safari/537.36" etag="4RQKdkO7f6QNQhMBpDDV" version="22.0.8" type="device">
  <diagram name="Trang-1" id="fIEpK5hSJXzgXgvBbOXk">
    <mxGraphModel dx="1194" dy="790" grid="1" gridSize="10" guides="1" tooltips="1" connect="1" arrows="1" fold="1" page="1" pageScale="1" pageWidth="827" pageHeight="1169" math="0" shadow="0">
      <root>
        <mxCell id="0" />
        <mxCell id="1" parent="0" />
        <mxCell id="NRyXWFvT62nAu0qp9Z8v-2" value="a,b,c" style="rounded=0;whiteSpace=wrap;html=1;" vertex="1" parent="1">
          <mxGeometry x="210" y="310" width="120" height="60" as="geometry" />
        </mxCell>
        <mxCell id="NRyXWFvT62nAu0qp9Z8v-3" value="" style="endArrow=classic;html=1;rounded=0;" edge="1" parent="1">
          <mxGeometry width="50" height="50" relative="1" as="geometry">
            <mxPoint x="269.5" y="260" as="sourcePoint" />
            <mxPoint x="269.5" y="310" as="targetPoint" />
          </mxGeometry>
        </mxCell>
        <mxCell id="NRyXWFvT62nAu0qp9Z8v-6" value="" style="endArrow=classic;html=1;rounded=0;" edge="1" parent="1">
          <mxGeometry width="50" height="50" relative="1" as="geometry">
            <mxPoint x="269.5" y="370" as="sourcePoint" />
            <mxPoint x="269.5" y="420" as="targetPoint" />
            <Array as="points">
              <mxPoint x="269.5" y="380" />
            </Array>
          </mxGeometry>
        </mxCell>
        <mxCell id="NRyXWFvT62nAu0qp9Z8v-9" value="a &amp;gt; b" style="rhombus;whiteSpace=wrap;html=1;" vertex="1" parent="1">
          <mxGeometry x="230" y="520" width="80" height="80" as="geometry" />
        </mxCell>
        <mxCell id="NRyXWFvT62nAu0qp9Z8v-10" value="" style="endArrow=classic;html=1;rounded=0;" edge="1" parent="1">
          <mxGeometry width="50" height="50" relative="1" as="geometry">
            <mxPoint x="310" y="560" as="sourcePoint" />
            <mxPoint x="370" y="560" as="targetPoint" />
          </mxGeometry>
        </mxCell>
        <mxCell id="NRyXWFvT62nAu0qp9Z8v-11" value="Đ" style="text;html=1;align=center;verticalAlign=middle;resizable=0;points=[];autosize=1;strokeColor=none;fillColor=none;" vertex="1" parent="1">
          <mxGeometry x="320" y="530" width="30" height="30" as="geometry" />
        </mxCell>
        <mxCell id="NRyXWFvT62nAu0qp9Z8v-12" value="min = b" style="rounded=0;whiteSpace=wrap;html=1;" vertex="1" parent="1">
          <mxGeometry x="370" y="530" width="120" height="60" as="geometry" />
        </mxCell>
        <mxCell id="NRyXWFvT62nAu0qp9Z8v-13" value="" style="endArrow=classic;html=1;rounded=0;" edge="1" parent="1">
          <mxGeometry width="50" height="50" relative="1" as="geometry">
            <mxPoint x="270" y="600" as="sourcePoint" />
            <mxPoint x="270" y="650" as="targetPoint" />
          </mxGeometry>
        </mxCell>
        <mxCell id="NRyXWFvT62nAu0qp9Z8v-14" value="S" style="text;html=1;align=center;verticalAlign=middle;resizable=0;points=[];autosize=1;strokeColor=none;fillColor=none;" vertex="1" parent="1">
          <mxGeometry x="265" y="608" width="30" height="30" as="geometry" />
        </mxCell>
        <mxCell id="NRyXWFvT62nAu0qp9Z8v-15" value="a &amp;gt; c" style="rhombus;whiteSpace=wrap;html=1;" vertex="1" parent="1">
          <mxGeometry x="230" y="650" width="80" height="80" as="geometry" />
        </mxCell>
        <mxCell id="NRyXWFvT62nAu0qp9Z8v-17" value="" style="endArrow=classic;html=1;rounded=0;" edge="1" parent="1">
          <mxGeometry width="50" height="50" relative="1" as="geometry">
            <mxPoint x="310" y="690" as="sourcePoint" />
            <mxPoint x="370" y="690" as="targetPoint" />
          </mxGeometry>
        </mxCell>
        <mxCell id="NRyXWFvT62nAu0qp9Z8v-25" value="Đ" style="edgeLabel;html=1;align=center;verticalAlign=middle;resizable=0;points=[];" vertex="1" connectable="0" parent="NRyXWFvT62nAu0qp9Z8v-17">
          <mxGeometry x="-0.3333" y="3" relative="1" as="geometry">
            <mxPoint y="-7" as="offset" />
          </mxGeometry>
        </mxCell>
        <mxCell id="NRyXWFvT62nAu0qp9Z8v-18" value="min = c" style="rounded=0;whiteSpace=wrap;html=1;" vertex="1" parent="1">
          <mxGeometry x="370" y="660" width="120" height="60" as="geometry" />
        </mxCell>
        <mxCell id="NRyXWFvT62nAu0qp9Z8v-19" value="min" style="shape=parallelogram;perimeter=parallelogramPerimeter;whiteSpace=wrap;html=1;fixedSize=1;" vertex="1" parent="1">
          <mxGeometry x="210" y="860" width="120" height="60" as="geometry" />
        </mxCell>
        <mxCell id="NRyXWFvT62nAu0qp9Z8v-20" value="end" style="ellipse;whiteSpace=wrap;html=1;" vertex="1" parent="1">
          <mxGeometry x="210" y="980" width="120" height="80" as="geometry" />
        </mxCell>
        <mxCell id="NRyXWFvT62nAu0qp9Z8v-22" value="" style="endArrow=none;html=1;rounded=0;" edge="1" parent="1">
          <mxGeometry width="50" height="50" relative="1" as="geometry">
            <mxPoint x="490" y="560" as="sourcePoint" />
            <mxPoint x="660" y="560" as="targetPoint" />
          </mxGeometry>
        </mxCell>
        <mxCell id="NRyXWFvT62nAu0qp9Z8v-23" value="" style="endArrow=none;html=1;rounded=0;" edge="1" parent="1">
          <mxGeometry width="50" height="50" relative="1" as="geometry">
            <mxPoint x="490" y="689.5" as="sourcePoint" />
            <mxPoint x="660" y="689.5" as="targetPoint" />
          </mxGeometry>
        </mxCell>
        <mxCell id="NRyXWFvT62nAu0qp9Z8v-24" value="" style="endArrow=none;html=1;rounded=0;" edge="1" parent="1">
          <mxGeometry width="50" height="50" relative="1" as="geometry">
            <mxPoint x="660" y="560" as="sourcePoint" />
            <mxPoint x="660" y="690" as="targetPoint" />
          </mxGeometry>
        </mxCell>
        <mxCell id="NRyXWFvT62nAu0qp9Z8v-27" value="" style="endArrow=none;html=1;rounded=0;" edge="1" parent="1">
          <mxGeometry width="50" height="50" relative="1" as="geometry">
            <mxPoint x="660" y="689.5" as="sourcePoint" />
            <mxPoint x="660" y="890" as="targetPoint" />
          </mxGeometry>
        </mxCell>
        <mxCell id="NRyXWFvT62nAu0qp9Z8v-28" value="" style="endArrow=classic;html=1;rounded=0;" edge="1" parent="1">
          <mxGeometry width="50" height="50" relative="1" as="geometry">
            <mxPoint x="660" y="890" as="sourcePoint" />
            <mxPoint x="320" y="890" as="targetPoint" />
          </mxGeometry>
        </mxCell>
        <mxCell id="NRyXWFvT62nAu0qp9Z8v-30" value="" style="endArrow=classic;html=1;rounded=0;" edge="1" parent="1">
          <mxGeometry width="50" height="50" relative="1" as="geometry">
            <mxPoint x="265" y="920" as="sourcePoint" />
            <mxPoint x="265" y="980" as="targetPoint" />
          </mxGeometry>
        </mxCell>
        <mxCell id="NRyXWFvT62nAu0qp9Z8v-31" value="" style="endArrow=classic;html=1;rounded=0;entryX=0.5;entryY=0;entryDx=0;entryDy=0;" edge="1" parent="1" target="NRyXWFvT62nAu0qp9Z8v-9">
          <mxGeometry width="50" height="50" relative="1" as="geometry">
            <mxPoint x="270" y="480" as="sourcePoint" />
            <mxPoint x="269.5" y="510" as="targetPoint" />
          </mxGeometry>
        </mxCell>
        <mxCell id="NRyXWFvT62nAu0qp9Z8v-33" value="Start" style="ellipse;whiteSpace=wrap;html=1;" vertex="1" parent="1">
          <mxGeometry x="210" y="180" width="120" height="80" as="geometry" />
        </mxCell>
        <mxCell id="NRyXWFvT62nAu0qp9Z8v-35" value="" style="endArrow=classic;html=1;rounded=0;" edge="1" parent="1">
          <mxGeometry width="50" height="50" relative="1" as="geometry">
            <mxPoint x="270" y="730" as="sourcePoint" />
            <mxPoint x="270" y="760" as="targetPoint" />
          </mxGeometry>
        </mxCell>
        <mxCell id="NRyXWFvT62nAu0qp9Z8v-36" value="min = a" style="rounded=0;whiteSpace=wrap;html=1;" vertex="1" parent="1">
          <mxGeometry x="210" y="760" width="120" height="60" as="geometry" />
        </mxCell>
        <mxCell id="NRyXWFvT62nAu0qp9Z8v-37" value="S" style="text;html=1;align=center;verticalAlign=middle;resizable=0;points=[];autosize=1;strokeColor=none;fillColor=none;" vertex="1" parent="1">
          <mxGeometry x="265" y="730" width="30" height="30" as="geometry" />
        </mxCell>
        <mxCell id="NRyXWFvT62nAu0qp9Z8v-38" value="" style="endArrow=classic;html=1;rounded=0;entryX=0.5;entryY=0;entryDx=0;entryDy=0;" edge="1" parent="1" target="NRyXWFvT62nAu0qp9Z8v-19">
          <mxGeometry width="50" height="50" relative="1" as="geometry">
            <mxPoint x="269.5" y="820" as="sourcePoint" />
            <mxPoint x="269.5" y="850" as="targetPoint" />
          </mxGeometry>
        </mxCell>
        <mxCell id="NRyXWFvT62nAu0qp9Z8v-39" value="min = a" style="shape=parallelogram;perimeter=parallelogramPerimeter;whiteSpace=wrap;html=1;fixedSize=1;" vertex="1" parent="1">
          <mxGeometry x="210" y="420" width="120" height="60" as="geometry" />
        </mxCell>
      </root>
    </mxGraphModel>
  </diagram>
</mxfile>
